<?xml version="1.0" encoding="utf-8"?>
<svg viewBox="0 0 2000 2000" style="enable-background:new 0 0 2000 2000;" xmlns="http://www.w3.org/2000/svg">
  <defs>
    <style type="text/css">
      .st0{fill:#E2BF2D;}
    </style>
  </defs>
  <path d="M 1742 1000 C 1742 1204.861 1658.887 1390.39 1524.673 1524.674 C 1390.39 1658.887 1204.861 1742 1000 1742 C 795.139 1742 609.61 1658.887 475.326 1524.673 C 341.113 1390.39 258 1204.861 258 1000 C 258 795.139 341.113 609.61 475.327 475.326 C 609.61 341.113 795.139 258 1000 258 C 1204.861 258 1390.39 341.113 1524.674 475.327 C 1658.887 609.61 1742 795.139 1742 1000 Z M 1523.966 476.033 C 1389.832 341.923 1204.657 259 1000 259 C 795.343 259 610.168 341.923 476.033 476.034 C 341.923 610.168 259 795.343 259 1000 C 259 1204.657 341.923 1389.832 476.034 1523.967 C 610.168 1658.077 795.343 1741 1000 1741 C 1204.657 1741 1389.832 1658.077 1523.967 1523.966 C 1658.077 1389.832 1741 1204.657 1741 1000 C 1741 795.343 1658.077 610.168 1523.966 476.033 Z" style="fill-rule: nonzero; fill: rgb(4, 5, 0); stroke-miterlimit: 4.42; paint-order: stroke; stroke: rgb(0, 0, 0); stroke-width: 15px;"/>
  <polyline points="528.26,1367.76 841.94,1367.76 768.04,1238.83 842.82,1100.89 1000.58,1367.76 1156.62,1367.76 922.96,963.45 &#10;&#9;998.67,830.44 1308.99,1367.76 1471.74,1367.76 1000.3,553.51 "/>
</svg>